<?xml version="1.0" encoding="UTF-8"?>
<svg id="Layer_1" data-name="Layer 1" xmlns="http://www.w3.org/2000/svg" viewBox="0 0 500 500">
  <defs>
    <style>
      .cls-1, .cls-2, .cls-3 {
        fill: #fff;
      }

      .cls-4, .cls-5 {
        stroke: #fff;
      }

      .cls-4, .cls-5, .cls-2, .cls-3 {
        stroke-miterlimit: 10;
      }

      .cls-5 {
        stroke-width: 8px;
      }

      .cls-2, .cls-3 {
        stroke: #000;
      }

      .cls-3 {
        stroke-width: 3px;
      }
    </style>
  </defs>
  <circle class="cls-5" cx="250" cy="250" r="245.38"/>
  <g>
    <polygon class="cls-1" points="297.29 280.89 276.43 277.05 278.15 238.66 309.36 244.41 297.29 280.89"/>
    <path d="m297.54,281.32c-7.19-1.25-14.43-2.53-21.63-3.86l.02-.44,1.71-38.39.02-.56.57.09,31.37,4.85,1.65.26-.57,1.57-13.15,36.47h0Zm-.51-.86l10.99-36.49,1.08,1.83-31.04-6.64.59-.47-1.71,38.39-.41-.51c6.84,1.26,13.65,2.56,20.51,3.9,0,0-6.86-1.34,0,0Z"/>
  </g>
  <path class="cls-4" d="m84.9,356.1l-25.31,9.06c-10.17,3.64-19.37.61-19.37-7.2v-104.56c0-7.81,9.2-10.84,19.37-7.2l25.31,9.06c6.56,2.35,11.45,8.51,11.45,13.96v72.92c0,5.45-4.89,11.61-11.45,13.96Z"/>
  <path class="cls-2" d="m86.4,352.59l-22.01,8.41c-8.84,3.38-16.84.56-16.84-6.68v-97.01c0-7.24,8-10.06,16.84-6.68l22.01,8.41c5.71,2.18,9.96,7.9,9.96,12.95v67.65c0,5.05-4.25,10.77-9.96,12.95Z"/>
  <rect class="cls-4" x="168.37" y="182.64" width="256.62" height="65.4" transform="translate(43.9 -50.16) rotate(10.43)"/>
  <polygon points="285.7 308.5 65.85 326.33 65.85 278.75 285.7 296.58 285.7 308.5"/>
  <polygon class="cls-2" points="285.7 307.05 71.95 320.54 71.95 284.54 285.7 298.03 285.7 307.05"/>
  <rect class="cls-2" x="268.39" y="280.89" width="34.63" height="12.44"/>
  <g>
    <circle class="cls-3" cx="286.32" cy="275.52" r="13.81"/>
    <circle class="cls-2" cx="286.32" cy="275.52" r="9.67"/>
  </g>
  <polygon class="cls-2" points="177.42 133.31 169.76 174.91 180.01 193.31 405.72 234.87 456.41 203.56 459.78 185.3 177.42 133.31"/>
  <rect class="cls-2" x="274.7" y="293.33" width="21.98" height="24.39"/>
  <ellipse class="cls-4" cx="59.14" cy="266.68" rx="4.27" ry="6.91"/>
  <ellipse class="cls-4" cx="59.14" cy="346" rx="4.27" ry="6.91"/>
  <ellipse class="cls-4" cx="85.84" cy="272.76" rx="3.52" ry="6.08"/>
  <ellipse class="cls-4" cx="85.84" cy="339.09" rx="3.52" ry="6.08"/>
  <g>
    <rect class="cls-2" x="186.76" y="234.31" width="213.54" height="4.11" transform="translate(47.65 -49.24) rotate(10.43)"/>
    <rect class="cls-2" x="189.13" y="221.46" width="213.54" height="4.11" transform="translate(45.36 -49.88) rotate(10.43)"/>
    <rect class="cls-2" x="187.95" y="227.84" width="213.54" height="4.11" transform="translate(46.5 -49.57) rotate(10.43)"/>
  </g>
  <rect class="cls-2" x="421.75" y="226.85" width="13" height="34.88" transform="translate(51.31 -73.5) rotate(10.43)"/>
</svg>